<svg width="23" height="28" viewBox="0 0 23 28" fill="none" xmlns="http://www.w3.org/2000/svg">
<path d="M16.2192 0.623535C14.8125 0.720834 13.1683 1.62126 12.2102 2.79379C11.3362 3.85747 10.6171 5.43734 10.8975 6.97268C12.4345 7.0205 14.0226 6.09864 14.9428 4.90632C15.8036 3.79646 16.455 2.22649 16.2192 0.623535Z" fill="#3E80CE"/>
<path d="M21.7784 9.47585C20.4277 7.7822 18.5296 6.79932 16.737 6.79932C14.3705 6.79932 13.3695 7.93227 11.7253 7.93227C10.03 7.93227 8.74202 6.80261 6.69545 6.80261C4.68516 6.80261 2.54459 8.03121 1.18736 10.1322C-0.720679 13.0907 -0.394152 18.6532 2.69796 23.3912C3.80453 25.0865 5.28215 26.9929 7.21492 27.0094C8.93496 27.0259 9.41981 25.9061 11.75 25.8946C14.0802 25.8814 14.5222 27.0242 16.239 27.0061C18.1734 26.9912 19.7318 24.8787 20.8384 23.1834C21.6316 21.968 21.9268 21.3562 22.5419 19.9841C18.0678 18.2805 17.3505 11.9182 21.7784 9.47585Z" fill="#3E80CE"/>
</svg>
