<svg width="22" height="24" viewBox="0 0 22 24" fill="none" xmlns="http://www.w3.org/2000/svg">
<path d="M4.31421 0.378079C3.41441 -0.119258 2.35792 -0.107759 1.46387 0.385266L11.9424 10.0517L15.4626 6.53154L4.31421 0.378079Z" fill="#3E80CE"/>
<path d="M0.416141 1.37402C0.160286 1.7923 0.0136719 2.27095 0.0136719 2.77835V20.2369C0.0136719 20.7285 0.147349 21.1971 0.388831 21.6067L10.9263 11.0692L0.416141 1.37402Z" fill="#3E80CE"/>
<path d="M20.1299 9.10719L16.7722 7.25439L12.999 11.0261L17.6231 15.2908L20.1314 13.9066C21.034 13.4064 21.5745 12.5095 21.5745 11.5062C21.5731 10.5029 21.034 9.60596 20.1299 9.10719Z" fill="#3E80CE"/>
<path d="M11.9832 12.0439L1.41699 22.6102C1.87552 22.8718 2.37861 23.0098 2.88457 23.0098C3.37328 23.0098 3.86487 22.8862 4.31477 22.6375L16.2983 16.0241L11.9832 12.0439Z" fill="#3E80CE"/>
</svg>
